<svg width="216" height="51" viewBox="0 0 216 51" fill="none" xmlns="http://www.w3.org/2000/svg">
<path d="M119.6 38.1L120.1 37.2L119.6 38.1Z" fill="white"/>
<path d="M107.9 18.2C106.6 16 104.9 14.3 102.8 13.1C100.6 11.8 98.2 11.2 95.5 11.2C92.8 11.2 90.4 11.8 88.2 13.1C86 14.3 84.3 16.1 83.1 18.2C81.8 20.4 81.2 22.8 81.2 25.5V47.5C81.2 48.4 81.5 49.3 82.2 49.9C82.9 50.6 83.7 50.9 84.7 50.9C85.7 50.9 86.5 50.6 87.2 49.9C87.8 49.2 88.2 48.4 88.2 47.5V36.9C89 37.6 89.9 38.2 90.8 38.6C92.6 39.4 94.5 39.9 96.5 39.9C99 39.9 101.3 39.3 103.4 38L102.9 37.1L103.4 37.9C105.4 36.6 107 34.9 108.2 32.8C109.4 30.6 110 28.2 110 25.5C109.8 22.8 109.2 20.4 107.9 18.2ZM102.9 20.9L102 21.4C102.7 22.6 103 24 103 25.5C103 27 102.6 28.4 102 29.6C101.3 30.8 100.4 31.7 99.3 32.5C98.2 33.2 96.9 33.5 95.4 33.5C94 33.5 92.7 33.2 91.5 32.5C90.4 31.8 89.5 30.8 88.8 29.6C88.1 28.4 87.8 27 87.8 25.4C87.8 23.8 88.1 22.4 88.8 21.2L88 20.9L88.9 21.4C89.6 20.2 90.5 19.2 91.6 18.6C92.8 17.9 94.1 17.5 95.5 17.5C97 17.5 98.3 17.9 99.4 18.6C100.5 19.3 101.4 20.2 102.1 21.4L102.9 20.9Z" fill="white"/>
<path d="M19.1 32.1L19.7 32.9L19.1 32.1Z" fill="white"/>
<path d="M139.5 33L138.7 32.5L139.5 33Z" fill="white"/>
<path d="M214.8 22.4C214.6 20.8 214.1 19.3 213.5 17.9C212.5 15.8 211 14.1 209 12.9C207 11.7 204.7 11.1 202 11.1C199.3 11.1 196.9 11.7 194.7 13C192.6 14.2 190.9 15.9 189.7 18.1C188.5 20.3 187.9 22.8 187.9 25.5C187.9 28.3 188.5 30.8 189.8 32.9C191.1 35 192.8 36.7 195.1 38C197.4 39.2 199.9 39.8 202.7 39.8C204.3 39.8 206 39.5 207.7 38.9C209.4 38.3 210.9 37.6 212.1 36.6C212.8 36 213.3 35.2 213.3 34.3C213.2 33.4 212.8 32.6 212.1 32C211.5 31.5 210.7 31.3 210 31.3C209.2 31.3 208.5 31.6 207.9 32C207.4 32.4 206.6 32.8 205.6 33.2C204.7 33.5 203.8 33.7 202.9 33.7C201.2 33.7 199.7 33.3 198.5 32.6C197.2 31.9 196.2 30.9 195.5 29.7C195.2 29.2 195 28.7 194.8 28.2H212C212.9 28.2 213.6 27.9 214.3 27.4C214.9 26.8 215.2 26 215.2 25.1C215 24.2 214.9 23.3 214.8 22.4ZM195.1 21.2C195.7 20 196.6 19 197.7 18.3C198.8 17.6 200.2 17.2 201.9 17.2C203.4 17.2 204.5 17.5 205.5 18.1C206.5 18.7 207.2 19.6 207.8 20.7C208 21.2 208.2 21.7 208.3 22.2H194.7C194.8 22 194.9 21.6 195.1 21.2Z" fill="white"/>
<path d="M54.7 18.2C53.4 16 51.7 14.3 49.6 13.1C47.4 11.8 45 11.2 42.3 11.2C39.6 11.2 37.2 11.8 35 13.1C32.8 14.3 31.1 16.1 29.8 18.2C28.5 20.4 27.9 22.9 27.9 25.6C27.9 28.3 28.5 30.7 29.6 32.9C30.8 35 32.4 36.8 34.4 38C36.4 39.3 38.7 39.9 41.3 39.9C43.8 39.9 46.1 39.3 48.2 38C48.7 37.7 49.2 37.3 49.7 36.9C49.8 37.6 50.1 38.2 50.6 38.8C51.3 39.4 52.1 39.7 53.1 39.7C54 39.7 54.9 39.4 55.6 38.7C56.3 38 56.6 37.2 56.6 36.2V25.5C56.6 22.8 56 20.4 54.7 18.2ZM46.7 17.7L46.2 18.5C47.3 19.2 48.2 20.1 48.9 21.3C49.6 22.5 49.9 23.9 49.9 25.5C49.9 27.1 49.6 28.4 48.9 29.7C48.2 30.9 47.3 31.8 46.2 32.6C45.1 33.3 43.8 33.6 42.3 33.6C40.9 33.6 39.6 33.3 38.4 32.6C37.3 31.9 36.3 30.9 35.7 29.7C35 28.5 34.7 27.1 34.7 25.6C34.7 24 35 22.6 35.7 21.5C36.4 20.3 37.3 19.3 38.4 18.6L37.9 17.8L38.4 18.7C39.6 18 40.9 17.6 42.3 17.6C43.8 17.6 45.1 18 46.2 18.7L46.7 17.7Z" fill="white"/>
<path d="M146.6 33.8L147.5 33.3L146.6 33.8Z" fill="white"/>
<path d="M188.2 33.9C188.1 33.9 188.1 33.9 188.2 33.9C187.6 33.2 186.8 32.9 185.9 32.9H184.7C184.4 32.9 184.1 32.8 183.8 32.2C183.5 31.6 183.3 30.8 183.3 29.8V3.4C183.3 2.5 183 1.6 182.3 1C181.6 0.3 180.8 0 179.8 0C178.9 0 178 0.3 177.3 1C176.6 1.7 176.3 2.5 176.3 3.4V29.8C176.3 31.7 176.6 33.3 177.3 34.8C178 36.3 178.9 37.5 180.2 38.3C181.5 39.2 182.9 39.6 184.6 39.6H184.7C185.8 39.6 186.8 39.3 187.7 38.7C188.5 38.1 189 37.2 189 36.2C189 35.4 188.8 34.6 188.2 33.9Z" fill="white"/>
<path d="M195.1 21.2L194.2 20.8L195.1 21.2Z" fill="white"/>
<path d="M139.5 18.1C138.3 15.9 136.6 14.2 134.4 13C132.2 11.7 129.8 11.1 127 11.1C124.2 11.1 121.7 11.7 119.6 13C117.4 14.2 115.7 15.9 114.5 18.1C113.3 20.3 112.7 22.8 112.7 25.5C112.7 28.3 113.3 30.7 114.5 32.9C115.8 35 117.5 36.7 119.6 38C121.8 39.2 124.3 39.8 127 39.8C129.8 39.8 132.2 39.2 134.4 38C136.6 36.8 138.3 35 139.5 32.9C140.7 30.7 141.3 28.2 141.3 25.5C141.4 22.7 140.7 20.3 139.5 18.1ZM133.6 29.7C133 30.9 132.1 31.8 131 32.5C129.9 33.2 128.6 33.5 127.1 33.5C125.6 33.5 124.3 33.2 123.2 32.5C122.1 31.8 121.2 30.9 120.5 29.7C119.8 28.5 119.5 27.1 119.5 25.5C119.5 23.9 119.8 22.5 120.5 21.3C121.2 20.1 122.1 19.1 123.2 18.5C124.3 17.8 125.6 17.5 127.1 17.5C128.6 17.5 129.9 17.8 131 18.5C132.1 19.2 133 20.1 133.6 21.3C134.3 22.5 134.6 23.9 134.6 25.5C134.6 27.1 134.3 28.5 133.6 29.7Z" fill="white"/>
<path d="M24.4 15.8C23.1 14.3 21.5 13.1 19.8 12.3C18.1 11.5 16.2 11.1 14.2 11.1C11.5 11.1 9.1 11.7 6.9 13C4.8 14.2 3.1 15.9 1.9 18.1C0.6 20.3 0 22.8 0 25.5C0 28.2 0.6 30.7 1.8 32.8C3 34.9 4.8 36.7 6.9 37.9L7.4 37L7 38C9.2 39.3 11.7 39.9 14.4 39.9C18.1 39.9 21.3 38.7 23.8 36.4C24.4 35.8 24.8 35 24.7 34.1C24.6 33.2 24.1 32.5 23.4 31.9C22.8 31.4 22 31.2 21.3 31.2C20.5 31.3 19.8 31.6 19.2 32.1C18.6 32.6 17.9 33 17.1 33.2C16.4 33.4 15.5 33.5 14.4 33.5C12.8 33.5 11.5 33.2 10.4 32.5C9.3 31.8 8.4 30.8 7.7 29.6C7.1 28.4 6.8 27 6.8 25.4C6.8 23.7 7.1 22.3 7.8 21.1C8.4 19.9 9.3 19 10.4 18.4C11.5 17.7 12.8 17.4 14.2 17.4C16.3 17.4 18 18.1 19.4 19.6C20 20.2 20.6 20.6 21.4 20.7C22.2 20.8 23 20.7 23.7 20.2C24.4 19.7 25 19 25.2 18.2C25.3 17.3 25 16.5 24.4 15.8Z" fill="white"/>
<path d="M80.6 16.3L81.3 17.1C81.8 16.7 82 16.1 82.2 15.5C82.4 14.9 82.3 14.2 82 13.6C81.7 13 81.2 12.6 80.7 12.2C79.5 11.4 77.8 11.1 75.9 11.1C73.8 11.1 71.9 11.6 70.1 12.6C69.6 12.9 69.1 13.2 68.6 13.6C68.5 13.1 68.2 12.7 67.9 12.4C67.3 11.7 66.4 11.5 65.4 11.5C64.4 11.5 63.6 11.8 62.9 12.4C62.2 13.1 62 13.9 62 14.9V36.5C62 37.5 62.3 38.4 62.9 39C63.6 39.6 64.4 39.8 65.4 39.8C66.4 39.8 67.3 39.6 67.9 38.9C68.5 38.2 68.8 37.4 68.8 36.4V23.2V22.2C68.8 21 69.2 20 69.9 19.2C70.7 18.4 71.8 17.8 73.3 17.5C74.8 17.2 76.5 17.2 78.5 17.6C79 17.7 79.5 17.7 80 17.7C80.5 17.6 81 17.4 81.4 17L80.6 16.3Z" fill="white"/>
<path d="M168.4 11.2C167.5 11.2 166.6 11.5 165.9 12.1C165.2 12.8 164.9 13.6 164.9 14.6V27.2V28.2C164.9 29.2 164.6 30 164.1 30.8C163.6 31.6 162.8 32.2 161.9 32.7C161 33.2 159.9 33.4 158.7 33.4C157.4 33.4 156.2 33.2 155.2 32.7C154.2 32.2 153.4 31.5 152.9 30.5C152.3 29.5 152 28.2 152 26.5V14.7C152 13.8 151.7 12.9 151 12.3C150.3 11.6 149.5 11.3 148.6 11.3C147.6 11.3 146.8 11.6 146.1 12.3C145.4 13 145.1 13.8 145.1 14.7V26.6C145.1 29.4 145.6 31.8 146.7 33.8C147.8 35.8 149.3 37.3 151.3 38.4C153.2 39.4 155.4 39.9 157.8 39.9C160.1 39.9 162.2 39.4 164 38.4C164.4 38.2 164.9 37.9 165.3 37.6C165.5 38 165.7 38.4 166 38.7C166.7 39.3 167.5 39.6 168.5 39.6C169.5 39.6 170.3 39.3 171 38.6C171.6 37.9 171.9 37.1 171.9 36.1V14.7C171.9 13.7 171.6 12.9 170.9 12.2C170.2 11.5 169.3 11.2 168.4 11.2Z" fill="white"/>
</svg>
