<svg width="229" height="281" viewBox="0 0 229 281" fill="none" xmlns="http://www.w3.org/2000/svg">
<ellipse opacity="0.15" cx="151.72" cy="269.583" rx="66" ry="10.5" fill="#17554D"/>
<path d="M85.5061 207.143C88.2047 215.971 80.3297 224.41 71.3273 222.336L31.5072 213.165C22.5005 211.091 19.1208 200.051 25.4245 193.297L53.3078 163.419C59.6115 156.664 70.8693 159.262 73.5692 168.094L85.5061 207.143Z" fill="#E6E6E6"/>
<rect x="9.75049" y="81.3798" width="90.1941" height="131.71" rx="45.097" transform="rotate(-20.767 9.75049 81.3798)" fill="#F3F3F3"/>
<path d="M40.9266 163.594L177.613 111.762C182.369 109.958 187.687 112.352 189.491 117.108L194.599 130.579C209.814 170.702 189.622 215.563 149.499 230.778V230.778C109.376 245.993 64.5157 225.801 49.3008 185.677L40.9266 163.594Z" fill="#F3F3F3"/>
<path d="M62.4688 127.839C63.8358 119.454 73.7637 115.689 80.3467 121.059V121.059C86.935 126.434 85.232 136.925 77.282 139.94V139.94C69.3321 142.955 61.1007 136.23 62.4688 127.839V127.839Z" fill="#F88F23"/>
<path d="M121.464 160.75C115.593 153.622 119.652 142.811 128.769 141.291L166.162 135.057C175.278 133.537 182.614 142.447 179.367 151.095L166.051 186.566C162.804 195.214 151.41 197.114 145.54 189.987L121.464 160.75Z" fill="#DEDEDE"/>
<rect x="29.1274" y="44.6213" width="19.5602" height="36.9076" rx="9.78008" transform="rotate(-20.767 29.1274 44.6213)" fill="#F75D55"/>
<ellipse cx="61.1265" cy="62.0911" rx="9.59896" ry="9.58875" transform="rotate(-20.767 61.1265 62.0911)" fill="#F75E55"/>
<rect x="48.9058" y="102.908" width="8.33118" height="16.6446" rx="4.16559" transform="rotate(-20.767 48.9058 102.908)" fill="black"/>
<rect x="48.9058" y="102.908" width="8.33118" height="16.6446" rx="4.16559" transform="rotate(-20.767 48.9058 102.908)" fill="black"/>
<rect x="48.9058" y="102.908" width="8.33118" height="16.6446" rx="4.16559" transform="rotate(-20.767 48.9058 102.908)" fill="black"/>
<rect x="69.5662" y="95.0736" width="8.33118" height="16.6446" rx="4.16559" transform="rotate(-20.767 69.5662 95.0736)" fill="black"/>
<rect x="69.5662" y="95.0736" width="8.33118" height="16.6446" rx="4.16559" transform="rotate(-20.767 69.5662 95.0736)" fill="black"/>
<rect x="69.5662" y="95.0736" width="8.33118" height="16.6446" rx="4.16559" transform="rotate(-20.767 69.5662 95.0736)" fill="black"/>
<rect x="144.983" y="236.747" width="10.4933" height="24.2691" rx="5.24667" transform="rotate(69.233 144.983 236.747)" fill="#F88F23"/>
<rect x="179.191" y="223.775" width="10.4933" height="24.2691" rx="5.24667" transform="rotate(69.233 179.191 223.775)" fill="#F88F23"/>
<path d="M226.72 196.276C226.72 248.191 192.694 272.083 150.72 272.083C108.746 272.083 74.7201 248.191 74.7201 196.276C74.7201 144.362 108.746 84.0828 150.72 84.0828C192.694 84.0828 226.72 144.362 226.72 196.276Z" fill="#FFD0A0"/>
</svg>
