<svg width="243" height="306" viewBox="0 0 243 306" fill="none" xmlns="http://www.w3.org/2000/svg">
<ellipse opacity="0.15" cx="143" cy="292.5" rx="83" ry="13.5" fill="#17554D"/>
<path d="M76.8972 223.443C76.2903 232.653 65.9355 237.749 58.2525 232.619L5.93449 197.687C-1.75305 192.554 -0.999906 181.034 7.28992 176.954L63.7408 149.171C72.0306 145.091 81.6372 151.512 81.03 160.728L76.8972 223.443Z" fill="#E6E6E6"/>
<rect x="44" y="34.8481" width="114.324" height="166.905" rx="57.1619" fill="#F3F3F3"/>
<path d="M44 146.271H229.296C235.742 146.271 240.967 151.496 240.967 157.942V176.175C240.967 230.566 196.875 274.659 142.484 274.659V274.659C88.0927 274.659 44 230.566 44 176.175V146.271Z" fill="#F3F3F3"/>
<path d="M85.603 113.58C90.9912 104.26 104.446 104.26 109.834 113.58V113.58C115.227 122.909 108.495 134.578 97.7185 134.578V134.578C86.9421 134.578 80.2095 122.909 85.603 113.58V113.58Z" fill="#F88F23"/>
<path d="M138.947 173.826C135.986 165.081 143.615 156.412 152.68 158.223L210.705 169.817C219.768 171.628 223.468 182.559 217.366 189.493L178.299 233.881C172.196 240.815 160.867 238.553 157.906 229.808L138.947 173.826Z" fill="#DEDEDE"/>
<rect x="83.4854" width="24.7931" height="46.77" rx="12.3966" fill="#F75D55"/>
<ellipse cx="113.559" cy="35.0774" rx="12.167" ry="12.151" fill="#F75E55"/>
<rect x="80.7306" y="77.95" width="10.56" height="21.0923" rx="5.28001" fill="black"/>
<rect x="80.7306" y="77.95" width="10.56" height="21.0923" rx="5.28001" fill="black"/>
<rect x="80.7306" y="77.95" width="10.56" height="21.0923" rx="5.28001" fill="black"/>
<rect x="108.738" y="77.95" width="10.56" height="21.0923" rx="5.28001" fill="black"/>
<rect x="108.738" y="77.95" width="10.56" height="21.0923" rx="5.28001" fill="black"/>
<rect x="108.738" y="77.95" width="10.56" height="21.0923" rx="5.28001" fill="black"/>
<rect x="134.449" y="279.703" width="13.2973" height="30.7618" rx="6.64867" transform="rotate(90 134.449 279.703)" fill="#F88F23"/>
<rect x="180.821" y="279.703" width="13.2973" height="30.7618" rx="6.64867" transform="rotate(90 180.821 279.703)" fill="#F88F23"/>
</svg>
